PathFileType	4	(X/Y/Z)	Patient4_TMGait_0pt4_03_right_05.trc.trc
DataRate	CameraRate	NumFrames	NumMarkers	Units	OrigDataRate	OrigDataStartFrame	OrigNumFrames
77.348066298343	77.348066298343	5	33	mm	77.348066298343	18	       141
Frame#	Time	Sacral			L.Shoulder			Chest			R.Shoulder			Neck			R.ASIS			L.ASIS			R.Thigh.Superior			R.Thigh.Lateral			R.Thigh.Inferior			R.Patella			L.Thigh.Superior			L.Thigh.Lateral			L.Thigh.Inferior			L.Patella			L.Shank.Superior			L.Shank.Lateral			L.Shank.Inferior			R.Shank.Superior			R.Shank.Lateral			R.Shank.Inferior			R.Heel			R.Midfoot.Superior			R.Midfoot.Lateral			R.Toe			L.Heel			L.Midfoot.Lateral			L.Midfoot.Superior			L.Toe			L.Elbow			L.Wrist			R.Elbow			R.Wrist			
		X1	Y1	Z1	X2	Y2	Z2	X3	Y3	Z3	X4	Y4	Z4	X5	Y5	Z5	X6	Y6	Z6	X7	Y7	Z7	X8	Y8	Z8	X9	Y9	Z9	X10	Y10	Z10	X11	Y11	Z11	X12	Y12	Z12	X13	Y13	Z13	X14	Y14	Z14	X15	Y15	Z15	X16	Y16	Z16	X17	Y17	Z17	X18	Y18	Z18	X19	Y19	Z19	X20	Y20	Z20	X21	Y21	Z21	X22	Y22	Z22	X23	Y23	Z23	X24	Y24	Z24	X25	Y25	Z25	X26	Y26	Z26	X27	Y27	Z27	X28	Y28	Z28	X29	Y29	Z29	X30	Y30	Z30	X31	Y31	Z31	X32	Y32	Z32	X33	Y33	Z33	

18	5.699785714286	789.615493157637	1011.341885216391	432.751728525223	1002.344783548546	1434.033337322496	262.374235228534	1082.320414295436	1365.681125428075	435.776962694504	979.700717836155	1441.289429998622	597.854429612166	964.963915862771	1497.581380611493	417.066948449501	1002.909518021413	948.124449621744	578.593309204962	1019.942815199967	961.008779876753	303.197645737390	1065.278523628982	760.658529718216	559.164107972098	1008.677745614044	647.674007262060	632.340942838229	1094.625306086515	600.658621045501	554.360757630618	1121.793401475045	525.139027944465	572.132416304000	1035.084854697987	736.995589634485	338.523007628914	935.972163672179	634.898770182322	262.053910909557	996.922608585216	546.960088360582	333.421075527469	984.939521662932	480.235103307992	341.058319427770	955.864082070827	410.954475569600	329.446573211610	861.467231174784	303.026301448696	274.525803756331	899.444121317005	188.816133453190	347.366820495537	1112.718271355135	440.187899922108	586.968503609562	1069.747376825808	325.383070204277	655.357995936989	1145.305650819648	243.002063427824	605.653497426014	1067.986974208023	49.112418813818	584.042951594989	1226.607833102027	133.513906527578	620.324028903116	1153.581479919188	53.326825787825	656.127090376806	1353.671008630619	105.123564046799	644.219977455484	764.341582332062	38.404531655683	389.406375452525	834.397362858613	35.094642735723	305.334207018537	918.909512338378	95.711042597890	331.272678004171	1045.868403856954	44.038592515786	294.902218504557	1046.679381284487	1109.642054334726	99.280377334936	1296.540411831493	1038.258071769811	95.362167694529	835.044491783179	1126.842744100849	705.516685805480	806.971365688974	867.206441961101	719.602742736311	
19	5.712714285714	791.178424689789	1010.441877763680	435.164131997813	1002.852169742152	1433.262239919806	264.267146766500	1083.195046449012	1365.147590454807	437.563537245120	980.681285394487	1440.633850337817	599.784595490334	965.533437465522	1496.829508148184	418.938418893583	1004.538758553565	947.125033276056	580.684669792639	1021.290470842320	960.227977881077	305.290363175359	1065.265937381768	758.290185114806	561.305312081883	1006.744790122516	645.252021054455	632.984143510787	1092.567450157728	598.295577286483	555.148862875707	1118.433837277075	523.055497698591	572.340248799140	1035.250599267806	735.789019863746	340.254537021312	935.306191048240	634.313441891907	263.688700199512	995.860163294628	545.830246591820	334.634288274216	983.432458729496	479.027335107870	342.088677093433	953.663965326162	410.052479477538	330.419071809946	858.212331735621	303.136311060526	275.238295318929	895.113471722066	188.326112099834	347.621237379518	1109.610680609580	437.676173222198	586.826812828748	1066.085566990390	322.369433303028	653.727443019951	1142.191614742548	240.540677861567	604.127341584879	1065.182705980912	47.652797121768	580.328652158669	1223.708171177457	130.520666833303	618.286693336105	1150.038424627581	50.994262757529	653.128113254293	1350.313010870715	101.205348404845	642.994146959389	759.148323612514	38.426560784019	389.381085396953	829.194461251354	35.075830939718	305.335304296884	913.768859961177	95.604194326376	331.307857177782	1040.701793376554	43.698532330505	294.876125821394	1048.581101239435	1108.724685824589	101.901967513359	1298.855320682945	1039.065454873839	98.344359119768	836.858661338503	1125.520215898450	706.695126107628	810.661848708065	865.497782508654	719.176547572441	
20	5.725642857143	792.888641665249	1009.369272302758	437.883530206500	1003.163241777286	1432.396020092450	266.311746413059	1084.031089476626	1364.603506312538	439.463512517491	981.652369183719	1439.903397763566	601.889936199699	965.997119047756	1495.989394338817	420.978739077491	1006.507160276818	946.055890269889	582.877940664492	1022.701719255218	959.398183068316	307.471935590581	1066.129890355096	756.235994744561	563.369226280780	1005.588897157283	642.873218144603	633.386859211638	1091.516984070751	596.199334837410	555.922996841856	1115.894068885872	520.770050896461	572.372950522276	1035.592832745617	734.521230760696	341.894859080309	934.699754005275	633.662989809437	265.433581390089	995.021328455671	544.622027359998	335.777831568450	982.201017195236	477.700933670906	343.071290345984	951.648412527412	409.069880581953	331.379570323004	855.008265476789	303.258641106400	275.991238445845	890.824602941046	187.793421411750	347.833759405587	1106.725372796457	434.713284271866	586.361558325444	1061.697023372441	319.333155323501	651.811991876687	1137.449566644577	237.416894722663	602.254027392353	1058.899374100151	46.539788405232	576.596581091422	1218.044631708743	126.435051277302	615.847648913547	1143.088155413502	48.475916765785	650.047553815442	1343.938428344931	95.094124850064	641.334596851422	753.944613978025	38.405753786545	389.345950095941	823.990274817734	35.022113679436	305.336046627749	908.616821861660	95.487397179868	331.322585466984	1035.540842873731	43.340727072283	294.836373182001	1050.139675276020	1107.578596334015	104.793725895675	1300.684291724280	1038.967433068450	101.523392450191	839.256908959421	1123.862615903193	708.277845290315	815.932728740015	863.366782961903	719.116168316974	
21	5.738571428571	794.736300364307	1008.154598014741	440.873235898261	1003.300636247771	1431.452194043345	268.514206789510	1084.839461901131	1364.061876620847	441.487566851514	982.617534302442	1439.111652299445	604.176589422807	966.374384749392	1495.083681970356	423.194153815331	1008.800060459906	944.944993103680	585.164692947550	1024.178600670977	958.534706883111	309.735583306741	1067.760144122511	754.413495649413	565.385150759803	1005.092052144614	640.567400683322	633.635774731781	1091.297474619807	594.303847478535	556.708896914244	1114.019514851261	518.305400090656	572.226965116557	1036.111901116791	733.210953941467	343.414851890862	934.134363608944	632.966908677660	267.281729778786	994.392322692241	543.353400520410	336.840363952793	981.247525304624	476.265769943594	343.995788400979	949.809765480887	408.019945250779	332.327247094610	851.844318161078	303.410832109075	276.792990671024	886.571396242067	187.231594036134	348.010570827555	1104.083647215370	431.414313981739	585.640848885607	1056.895044955157	316.302395623350	649.786255629309	1131.550056366717	233.773957818046	600.150514501582	1049.993403508783	45.632355695736	573.101241958509	1210.332713717673	121.577055253102	613.108258467229	1133.653992917167	45.885562171171	647.079276788087	1335.386912112122	87.448622446730	639.256917172815	748.727568950155	38.353197981604	389.297797215043	818.786342128472	34.935772686215	305.337258113401	903.460149134234	95.365020391493	331.313597381230	1030.390298834828	42.968848904634	294.780758083132	1051.323012722563	1106.214872810592	107.944388725524	1302.002552836141	1037.975674866253	104.877389512233	842.232319406809	1121.899549062375	710.266400901006	822.722128630588	860.881498037369	719.466453323431	
22	5.751500000000	796.703862626482	1006.848793570298	444.090577754172	1003.291709321553	1430.467181981097	270.876558551708	1085.633771231376	1363.548604303536	443.640792608257	983.587136903556	1438.284968950202	606.646853811330	966.690966543954	1494.151576015683	425.588493394293	1011.385060273744	943.839206215446	587.530665458152	1025.720457992640	957.666446558493	312.074565955112	1069.992472455187	752.749174482275	567.376005312822	1005.129189045090	638.393159482470	633.835194583534	1091.692838014383	592.567351421449	557.516486481450	1112.635663036392	515.729741046796	571.929542008722	1036.815170476759	731.892607747952	344.799835183500	933.611798320600	632.252301735663	269.230429892561	993.978889142924	542.054118534403	337.826248419213	980.593545056969	474.740288775182	344.862072049345	948.157013590388	406.925170669436	333.268236357241	848.727844219100	303.623790798511	277.654832089468	882.361091611459	186.667284627536	348.161706515005	1101.698205590184	427.953463812482	584.770459211676	1052.012546218976	313.354662279699	647.841521298244	1125.018806703439	229.844338376910	597.963308808790	1039.460220331989	44.850951197670	570.049619167078	1201.370105958075	116.375465275936	610.217704432932	1122.765595652805	43.391354695623	644.398908857066	1325.569100918951	79.075711232425	636.864041064523	743.497424992430	38.304165246748	389.232204249406	813.587080759956	34.831336010086	305.338799766912	898.314963391967	95.245285450036	331.275919963907	1025.257154450354	42.585425792655	294.706760438761	1052.100288526068	1104.657617129969	111.349237210805	1302.774634812176	1036.100818930922	108.376096198311	845.787004391051	1119.672474632741	712.647495923172	830.960215387315	858.129958157234	720.264500524676	
